<svg version="1.2" xmlns="http://www.w3.org/2000/svg" viewBox="0 0 90 90" width="90" height="90">
	<title>logo-svg</title>
	<style>
		.s0 { fill: #4f008c } 
		.s1 { fill: #fcb310 } 
	</style>
	<path id="Layer" fill-rule="evenodd" class="s0" d="m37.8 22.8v-6.8h6.8v6.8zm-13 20c3.4-0.3 4.2-3.4 1.3-4.6-1.1-0.4-2.3-0.7-3.5-0.9-1.4-0.3-2.7-0.6-3.9-1.1-8.2-3.3-5.9-13.8 3.7-14.7 5.2-0.5 11.3 2.2 11.6 7.1l-5.6 1.3c-0.1-0.3-0.2-0.5-0.3-0.7-0.1-0.3-0.2-0.6-0.4-1-2.1-2.7-8.2-1.9-7.6 1.2 0.3 1.6 2.1 1.9 4.4 2.3 1.8 0.3 3.9 0.7 5.8 1.7 5.2 2.7 5.2 9.1 1.3 12.3-1.7 1.3-4.3 2.2-7.2 2.3-5.1 0.1-10.9-2.6-11.3-7.7l5.9-1.2c0.3 2.6 2.6 4 5.8 3.7zm52.3 0.7c-0.8 1-1.9 2-3.2 2.7-7.6 4.6-20.2 0.1-20.3-11.4 0-11.8 12.5-16.2 20.3-11.5 2 1.2 4.4 3.6 5 6.6l-6.2 2c-0.7-2.9-3.6-4.9-7.4-3.9-3 0.7-4.8 3.3-4.7 7 0 3.5 2 6 5.1 6.6 1.8 0.4 3.6 0.1 4.8-0.7 0.7-0.4 1.1-0.9 1.6-1.4 0.3-0.4 0.4-0.7 0.6-1.1q0.1-0.4 0.4-0.8l6 1.9c-0.2 1.4-1.3 3.1-2 4zm-39.2-14.5l6.8-0.1q0 0.6 0 1.4c0 2.8-0.1 7.8 0 9 0.2 1.6 0.9 2.5 2.6 2.7 1.8 0.2 2.7-0.2 3.9-0.7q0.2-0.1 0.4-0.2l-0.1 5.4c-2.8 2.1-9.9 2.4-12.5-1.8-1.2-1.9-1.2-4.1-1.1-6.5q0-0.5 0-0.9 0-1.3-0.1-2.7c0-1.9 0-3.8 0.1-5.6zm13.7-0.1h-6.9v-6.8h6.9z"/>
	<path id="Layer" fill-rule="evenodd" class="s1" d="m23.2 62c1.7 0 3 0.5 4.1 1.5 1.1 1 1.6 2.3 1.6 4 0 1.7-0.5 3-1.6 4-1 1-2.4 1.5-4.1 1.5h-3.5v-11zm0.1 1.8h-1.6v7.2h1.6c1 0 1.8-0.3 2.5-0.9 0.7-0.6 0.9-1.5 0.9-2.7 0-1.2-0.3-2-0.9-2.7-0.6-0.7-1.5-0.9-2.5-0.9zm9.8 9.3c-1 0-1.8-0.4-2.5-1-0.6-0.7-1-1.6-1-2.8 0-1.2 0.3-2.1 1-2.8 0.6-0.7 1.5-1 2.5-1q1.6 0 2.4 1.2v-1h1.9v7.2h-1.9v-1c-0.5 0.7-1.3 1.2-2.4 1.2zm-1-2.4c0.4 0.4 0.8 0.6 1.4 0.6 0.6 0 1-0.2 1.4-0.6q0.6-0.6 0.6-1.5 0-0.9-0.6-1.5c-0.4-0.4-0.8-0.6-1.4-0.6-0.6 0-1 0.2-1.4 0.6q-0.6 0.6-0.6 1.5c0.1 0.7 0.3 1.1 0.6 1.5zm11-3.3h-1.5v3c0 0.3 0.1 0.5 0.2 0.6 0.1 0.1 0.3 0.2 0.6 0.2h0.3v1.8h-0.8c-0.7 0-1.2-0.2-1.6-0.6-0.4-0.4-0.6-0.9-0.6-1.6v-3.5h-1.3v-1.6h1.3v-2.9h1.9v2.9h1.5zm3.6 5.7c-0.8 0-1.5-0.2-1.9-0.7-0.4-0.5-0.7-1.3-0.7-2.3v-4.4h1.9v4c0 1.1 0.5 1.6 1.4 1.6 1.1 0 1.6-0.7 1.6-2.2v-3.4h2v7.1h-2v-1.1c-0.4 0.9-1.2 1.4-2.3 1.4zm7.9-0.2h-1.7v-7.2h1.9v1c0.4-0.8 1.1-1.3 2.2-1.3 1.1 0 1.8 0.5 2.2 1.4 0.5-0.9 1.2-1.4 2.3-1.4 0.7 0 1.3 0.2 1.8 0.7 0.4 0.4 0.7 1.2 0.7 2.1v4.6h-1.9v-4.2c0-1-0.4-1.5-1.3-1.5-1 0-1.5 0.7-1.5 2v3.7h-1.9v-4.1c0-1-0.4-1.5-1.3-1.5-1 0-1.5 0.7-1.5 2zm14.4 0.3c-1.1 0-2.1-0.4-2.8-1.1-0.7-0.8-1.1-1.6-1.1-2.8 0-1.2 0.4-2.1 1.1-2.8 0.7-0.7 1.6-1.1 2.8-1.1 0.9 0 1.7 0.2 2.5 0.7l-0.8 1.6c-0.6-0.3-1.1-0.5-1.7-0.5-0.6 0-1 0.2-1.5 0.5q-0.6 0.6-0.6 1.5c0 0.7 0.2 1.1 0.6 1.5q0.6 0.6 1.5 0.6c0.6 0 1.2-0.2 1.7-0.5l0.8 1.6c-0.8 0.4-1.6 0.7-2.5 0.8zm3.8-6.7c0.7-0.7 1.7-1.1 2.8-1.1 1.2 0 2.1 0.4 2.8 1.1 0.7 0.7 1.1 1.6 1.1 2.8 0 1.2-0.4 2-1.1 2.8-0.7 0.7-1.7 1.1-2.8 1.1-1.2 0-2.1-0.4-2.8-1.1-0.7-0.7-1.1-1.6-1.1-2.8 0-1.2 0.4-2.1 1.1-2.8zm4.3 1.3c-0.4-0.4-0.8-0.6-1.5-0.6q-0.9 0-1.5 0.6c-0.4 0.4-0.6 0.8-0.6 1.5 0 0.7 0.2 1.1 0.6 1.5q0.6 0.6 1.5 0.6 0.9 0 1.5-0.6c0.4-0.4 0.6-0.8 0.6-1.5q0-1.1-0.6-1.5zm8.1-2.1c0.9 0 1.5 0.2 2 0.7 0.4 0.5 0.7 1.2 0.7 2.2v4.4h-1.9v-4c0-1.1-0.5-1.7-1.5-1.7-1.1 0-1.7 0.7-1.7 2.1v3.5h-1.9v-7.2h1.9v1.1c0.5-0.9 1.3-1.4 2.4-1.1zm-68.3 3.5c0 0.4-0.3 0.8-0.8 0.8-0.2 0-0.4-0.1-0.5-0.2l-0.6 0.4h-4.5v1h3.5c0.1 0 0.2 0 0.2 0.1l0.9 1.1c0.1 0 0.1 0 0.2 0 0.4 0 0.8 0.3 0.8 0.8 0 0.4-0.4 0.8-0.8 0.8-0.4 0-0.8-0.3-0.8-0.8 0-0.2 0.1-0.4 0.2-0.5l-0.7-0.9h-3.5v0.7h1.7c0.1 0 0.2 0 0.2 0.1l0.3 0.6c0 0 0.1 0 0.2 0 0.4 0 0.8 0.3 0.8 0.8 0 0.4-0.3 0.8-0.8 0.8-0.5 0-0.8-0.4-0.8-0.9 0.1-0.1 0.1-0.3 0.2-0.4l-0.3-0.5h-1.7c-0.1 0.9-0.8 1.5-1.7 1.5-0.7 0-1.3-0.4-1.6-1h-0.1c-0.9 0-1.7-0.8-1.7-1.8-0.2 0.1-0.3 0.1-0.5 0.1-0.9 0-1.7-0.8-1.7-1.7 0-0.2 0.1-0.5 0.2-0.7-0.7-0.4-1.1-1.2-1.1-2.1 0-0.8 0.5-1.6 1.2-2.1-0.1-0.2-0.2-0.5-0.2-0.7 0-0.9 0.8-1.7 1.7-1.7 0.2 0 0.3 0 0.6 0.1-0.1-1 0.7-1.8 1.7-1.8h0.1c0.3-0.6 0.9-1 1.6-1 0.9 0 1.7 0.8 1.7 1.7v0.2h1.5l0.3-0.5c-0.1-0.1-0.2-0.3-0.2-0.5 0-0.4 0.3-0.8 0.8-0.8 0.4 0 0.8 0.4 0.8 0.8 0 0.4-0.3 0.8-0.8 0.8 0 0-0.1 0-0.2 0l-0.3 0.6c0 0-0.1 0.1-0.2 0.1h-1.7v0.6h3.7l0.7-0.9c-0.1-0.1-0.2-0.3-0.2-0.5 0-0.4 0.3-0.8 0.8-0.8 0.4 0 0.8 0.4 0.8 0.8 0 0.4-0.3 0.8-0.8 0.8-0.1 0-0.1 0-0.2 0l-0.9 1.1c-0.1 0.1-0.1 0.1-0.2 0.1h-3.7v1h4.6l0.6 0.4c0.1-0.1 0.3-0.2 0.5-0.2 0.4 0 0.7 0.2 0.8 0.6 0.1 0.6-0.4 1.1-1 1-0.3-0.1-0.6-0.4-0.6-0.8 0-0.1 0-0.1 0-0.2l-0.5-0.3h-4.4v1.4h3.3c0.1-0.4 0.3-0.6 0.7-0.6 0.4 0 0.8 0.4 0.8 0.8 0 0.4-0.4 0.8-0.8 0.8-0.4 0-0.7-0.3-0.8-0.6h-3.2v1.4h1.3c0.1-0.4 0.3-0.6 0.7-0.6 0.4 0 0.8 0.4 0.8 0.8 0 0.4-0.4 0.8-0.8 0.8-0.4 0-0.7-0.3-0.8-0.6h-1.2v1.2h4.3l0.5-0.4c0-0.1 0-0.1 0-0.2 0-0.4 0.4-0.8 0.8-0.8 0.5 0 0.8 0.4 0.8 0.6zm-6.9 3.6v-3.2h-0.6c-0.5 0-0.9-0.4-0.9-0.9 0-0.5-0.4-1-1-1h-0.2c-0.2 0-0.3-0.2-0.3-0.3 0-0.2 0.1-0.3 0.2-0.3h0.2c0.9 0 1.6 0.8 1.6 1.6 0 0.2 0.2 0.4 0.4 0.4h0.5v-2.2h-0.5c-0.6 0-1.2-0.5-1.2-1.2 0-0.2 0.1-0.2 0.3-0.2 0.2 0 0.3 0.2 0.3 0.3 0 0.4 0.3 0.7 0.7 0.7h0.5c0-0.1 0-4.7 0-4.7 0-0.7-0.6-1.2-1.2-1.3-0.5 0-0.9 0.2-1.1 0.6 0.6 0.3 1.1 0.9 1.1 1.6q0 0.3-0.3 0.3c-0.2 0-0.3-0.1-0.2-0.2 0-0.6-0.4-1.1-1-1.2-0.1 0-0.1 0-0.2 0-0.7 0-1.3 0.5-1.3 1.2 0 0.1 0 0.3 0.1 0.4 0 0.1 0 0.2-0.1 0.3q-0.2 0.1-0.3 0c-0.2-0.1-0.4-0.2-0.7-0.2-0.6 0-1.2 0.5-1.2 1.2 0 0.2 0 0.4 0.2 0.6 0 0.1 0 0.1 0 0.2 0 0.1 0 0.2-0.1 0.2-0.7 0.3-1.1 1-1.1 1.8 0 0.8 0.4 1.5 0.9 1.9 0 0.1 0.1 0.1 0.1 0.2 0 0.1 0 0.1 0 0.2-0.1 0.1-0.2 0.4-0.2 0.6 0 0.6 0.5 1.2 1.2 1.2 0.2 0 0.5-0.1 0.7-0.2q0.1-0.2 0.3 0c0.1 0.1 0.1 0.2 0.1 0.3-0.1 0.1-0.1 0.3-0.1 0.4 0 0.6 0.6 1.2 1.3 1.2 0.1 0 0.1 0 0.2 0 0.6-0.1 1-0.6 1-1.2q0-0.3 0.3-0.3c0.2 0 0.3 0.2 0.3 0.3 0 0.7-0.5 1.3-1.1 1.6 0.3 0.3 0.6 0.6 1.1 0.6 0.7 0 1.3-0.5 1.3-1.3z"/>
</svg>